# xmcd CD database file
#
# Track frame offsets:
#	150
#	20714
#	44735
#	66317
#	84940
#	103304
#	114441
#	133228
#	146898
#	166037
#	184600
#	200348
#
# Disc length: 2997 seconds
#
# Revision: 1
# Processed by: cddbd v1.5.2PL0 Copyright (c) Steve Scherf et al.
# Submitted via: CDex 1.70beta2
#
DISCID=b00bb30c
DTITLE=Белая Гвардия - Питер
DYEAR=1900
DGENRE=Acoustic
TTITLE0=Питер
TTITLE1=Черта
TTITLE2=Еще один блюз
TTITLE3=Грустный мотив
TTITLE4=Ночной дозор
TTITLE5=Маленький
TTITLE6=Весна
TTITLE7=Увертюры белых рек
TTITLE8=Смешное кино
TTITLE9=Германия
TTITLE10=Птичка
TTITLE11=Один из семи
EXTD=
EXTT0=
EXTT1=
EXTT2=
EXTT3=
EXTT4=
EXTT5=
EXTT6=
EXTT7=
EXTT8=
EXTT9=
EXTT10=
EXTT11=
PLAYORDER=
